# xmcd
#
# Track frame offsets: 
#        150
#        15332
#        32416
#        45665
#        61770
#        77850
#        94195
#        108423
#        124361
#        138463
#        154599
#
# Disc length: 2278 seconds
#
# Revision: 0
# Processed by: cddbd v1.5.2PL0 Copyright (c) Steve Scherf et al.
# Submitted via: ExactAudioCopy v0.99pb4
#
DISCID=8308e40b
DTITLE=ดาวใจ ไพจิตร - มิติใหม่ 4
DYEAR=2009
DGENRE=Country
TTITLE0=คืนนี้พี่นอนกับใคร
TTITLE1=คอยวันเธอใจเดียว
TTITLE2=ลูกสาวกำนัน
TTITLE3=น้องเป็นคนรักที่เท่าไร
TTITLE4=สาวเหนือเบื่อรัก
TTITLE5=น้ำตาคนชั่ว
TTITLE6=ทาแป้งรอ
TTITLE7=แว่วเสียงซึง
TTITLE8=ไทรโยคแห่งความหลัง
TTITLE9=หล่อหน้าบึ่ง
TTITLE10=หาเพื่อนแก้เหงา
EXTD=
EXTT0=
EXTT1=
EXTT2=
EXTT3=
EXTT4=
EXTT5=
EXTT6=
EXTT7=
EXTT8=
EXTT9=
EXTT10=
PLAYORDER=
